<?xml version="1.0" encoding="UTF-8"?><svg xmlns="http://www.w3.org/2000/svg" viewBox="0 0 844 844"><defs><style>.d{fill:#bdf1f4;}.e{fill:#7bc2c7;}.f{fill:#14b5bf;}</style></defs><g id="a"/><g id="b"><g id="c"><g><path class="d" d="M0,0V844H844V0H0Z"/><path class="e" d="M844,422.78L475.93,227.75c23.39,16.8,38.63,44.23,38.63,75.23,0,51.12-41.44,92.56-92.56,92.56,107.14,0,194,103.89,194,232.04H228l432.93,216.42h183.07V422.78Z"/><g><path class="f" d="M514.56,302.98c0-31-15.24-58.43-38.63-75.23h0c-15.19-10.91-33.81-17.33-53.93-17.33-51.12,0-92.56,41.44-92.56,92.56s40.92,92.03,91.59,92.55c.32,0,.64,.01,.97,.01,51.12,0,92.56-41.44,92.56-92.56Z"/><path class="f" d="M422,395.54c-.32,0-.64,.01-.96,.01-106.7,.62-193.04,104.26-193.04,232.02h388c0-128.15-86.86-232.04-194-232.04Z"/></g></g></g></g></svg>