<?xml version="1.0" encoding="UTF-8"?><svg xmlns="http://www.w3.org/2000/svg" viewBox="0 0 844 844"><defs><style>.d{fill:#bdf1f4;}.e{fill:none;}.f{fill:#14b5bf;}</style></defs><g id="a"/><g id="b"><g id="c"><path class="e" d="M0,0V844H844V0H0Z"/><g><path class="d" d="M645.75,546.25c-4.09-8.64-2.84-18.91,3.23-26.27,25.39-30.8,40.05-67.15,40.05-106.08,0-111.17-119.55-201.29-267.02-201.29s-267.02,90.12-267.02,201.29,119.55,201.29,267.02,201.29c43.62,0,84.8-7.89,121.17-21.87,6.08-2.34,12.83-2.15,18.75,.6l75.64,35.16c20.56,9.56,41.65-12.19,31.86-32.85l-23.67-49.97Zm-35.28-23.13l20.35,42.4c8.42,17.53-9.72,35.98-27.39,27.87l-65.02-29.83c-5.08-2.33-10.88-2.49-16.11-.51-31.26,11.86-66.66,18.56-104.16,18.56-126.78,0-229.55-76.46-229.55-170.77s102.77-170.77,229.55-170.77,229.55,76.46,229.55,170.77c0,33.03-12.6,63.86-34.43,89.99-5.21,6.24-6.29,14.96-2.77,22.29Z"/><circle class="f" cx="418.12" cy="417.76" r="37.98"/><circle class="f" cx="302.24" cy="417.76" r="37.98"/><circle class="f" cx="534" cy="417.76" r="37.98"/></g></g></g></svg>