<?xml version="1.0" encoding="UTF-8"?><svg xmlns="http://www.w3.org/2000/svg" viewBox="0 0 844 844"><defs><style>.d{fill:#14b5bf;stroke:#14b5bf;stroke-miterlimit:10;stroke-width:23px;}.e{fill:#bdf1f4;}</style></defs><g id="a"/><g id="b"><g id="c"><g><path class="e" d="M0,0V844H844V0H0Z"/><g><path class="d" d="M505.11,244.34v.36c0,4.41,2.71,8.34,6.81,9.97,88.02,35.2,150.12,120.53,150.12,220.21,0,131.13-107.47,237.44-240.04,237.44s-240.04-106.3-240.04-237.44c0-100.85,63.57-186.99,153.22-221.41,4.17-1.6,6.95-5.56,6.95-10.03v-.36c0-7.51-7.53-12.69-14.54-10.01-98.05,37.48-167.59,131.6-167.59,241.81,0,143.13,117.3,259.16,262,259.16s262-116.03,262-259.16c0-108.94-67.96-202.17-164.23-240.5-7.03-2.8-14.66,2.39-14.66,9.96Z"/><path class="d" d="M424,109.95c-14.36,0-26,9.06-26,20.23v410.04c0,11.17,11.64,20.23,26,20.23h0c14.36,0,26-9.06,26-20.23V130.18c0-11.17-11.64-20.23-26-20.23h0Z"/></g></g></g></g></svg>