<?xml version="1.0" encoding="UTF-8"?><svg xmlns="http://www.w3.org/2000/svg" viewBox="0 0 844 844"><defs><style>.d{fill:none;}.e{fill:#14b5bf;}</style></defs><g id="a"/><g id="b"><g id="c"><g><path class="d" d="M0,0V844H844V0H0Z"/><g><g><path class="e" d="M608.29,306.01c0-31-15.24-58.43-38.63-75.23h0c-15.19-10.91-33.81-17.33-53.93-17.33-51.12,0-92.56,41.44-92.56,92.56s40.92,92.03,91.59,92.55c.32,0,.64,.01,.97,.01,51.12,0,92.56-41.44,92.56-92.56Z"/><path class="e" d="M515.72,398.57c-.32,0-.64,.01-.96,.01-106.7,.62-193.04,104.26-193.04,232.02h388c0-128.15-86.86-232.04-194-232.04Z"/></g><rect class="e" x="235.71" y="213.39" width="49.77" height="252.65" rx="14.72" ry="14.72"/><rect class="e" x="235.71" y="213.39" width="49.77" height="252.65" rx="14.72" ry="14.72" transform="translate(600.31 79.11) rotate(90)"/></g></g></g></g></svg>