<?xml version="1.0" encoding="UTF-8"?><svg xmlns="http://www.w3.org/2000/svg" viewBox="0 0 844 844"><defs><style>.d{fill:none;}.e{fill:#961212;}</style></defs><g id="a"/><g id="b"><g id="c"><g><g><path class="e" d="M541.46,305.29h-238.92c-15.14,0-26.99,13.05-25.53,28.12l27.69,286.1c1.27,13.15,12.32,23.18,25.53,23.18h183.54c13.21,0,24.26-10.03,25.53-23.18l27.69-286.1c1.46-15.07-10.39-28.12-25.53-28.12Zm-178.96,264.34c-.15,.01-.3,.02-.45,.02-3.02,0-5.57-2.33-5.81-5.39l-16.55-217.05c-.26-3.38,2.43-6.31,5.89-6.27,3.1,.03,5.53,2.71,5.77,5.8l16.52,216.63c.24,3.21-2.16,6.01-5.37,6.26Zm60.02,.31c-3.45,.3-6.35-2.42-6.35-5.81v-217.26c0-3.1,2.22-5.95,5.31-6.22,3.46-.3,6.35,2.41,6.35,5.81v217.26c0,3.1-2.22,5.95-5.31,6.22Zm67.95-5.68c-.23,3.06-2.79,5.39-5.81,5.39-.15,0-.3,0-.45-.02-3.21-.25-5.62-3.05-5.37-6.26l16.55-217.05c.25-3.21,3.04-5.6,6.26-5.37,3.21,.25,5.62,3.05,5.37,6.26l-16.55,217.05Z"/><path class="e" d="M590.88,250.47h-73.26c-4.84,0-8.76-3.92-8.76-8.76v-31.64c0-4.84-3.92-8.76-8.76-8.76h-156.21c-4.84,0-8.76,3.92-8.76,8.76v31.64c0,4.84-3.92,8.76-8.76,8.76h-73.26c-4.84,0-8.76,3.92-8.76,8.76v13.58c0,4.84,3.92,8.76,8.76,8.76h337.76c4.84,0,8.76-3.92,8.76-8.76v-13.58c0-4.84-3.92-8.76-8.76-8.76Zm-114.46-7.96h-108.84c-4.84,0-8.76-3.92-8.76-8.76s3.92-8.76,8.76-8.76h108.84c4.84,0,8.76,3.92,8.76,8.76s-3.92,8.76-8.76,8.76Z"/></g><path class="d" d="M0,0V844H844V0H0Z"/></g></g></g></svg>