<?xml version="1.0" encoding="UTF-8"?><svg xmlns="http://www.w3.org/2000/svg" viewBox="0 0 159.99 376.2"><defs><style>.d{fill:#fff;}.e{fill:#ffefaa;}.f{fill:#14b5bf;}.g{fill:#231f20;}</style></defs><g id="a"/><g id="b"><g id="c"><g><g><polygon points="12.31 374.14 26.32 359.36 8.64 346.93 12.31 374.14"/><path d="M11.67,376.1c-.75-.24-1.3-.9-1.41-1.68l-3.67-27.22c-.11-.81,.27-1.61,.97-2.03,.7-.42,1.58-.41,2.25,.08l17.68,12.43c.49,.34,.8,.88,.86,1.48,.06,.59-.14,1.19-.55,1.62l-14.01,14.78c-.54,.58-1.37,.79-2.13,.54Zm-.37-24.78l2.47,18.29,9.42-9.93-11.88-8.36Z"/></g><g><path class="e" d="M147.68,65.55l9.29-28.75c3.4-10.52-2.38-21.8-12.89-25.19L117.5,3.03c-10.5-3.39-21.78,2.38-25.18,12.9l-9.29,28.75,64.65,20.88Z"/><path d="M147.05,67.51l-64.65-20.88c-1.08-.35-1.67-1.51-1.32-2.59l9.29-28.75c3.74-11.58,16.2-17.96,27.77-14.22l26.57,8.58c11.58,3.74,17.96,16.2,14.22,27.78l-9.29,28.75c-.35,1.08-1.51,1.67-2.59,1.32Zm-61.43-24.16l60.73,19.62,8.65-26.79c3.04-9.42-2.14-19.56-11.57-22.6l-26.57-8.58c-9.41-3.04-19.55,2.15-22.59,11.57l-8.65,26.79Z"/></g><g><polygon class="d" points="140.07 72.34 146.85 65.29 115.35 55.11 83.84 44.94 85.22 54.63 77.61 64.24 78.23 76.27 71.37 83.54 102.88 93.72 134.38 103.89 133.08 93.99 140.62 84.59 140.07 72.34"/><path d="M133.75,105.85l-63.01-20.35c-.67-.22-1.18-.76-1.36-1.45-.18-.68,.01-1.41,.5-1.92l6.25-6.62-.58-11.16c-.03-.5,.13-.99,.44-1.38l7.07-8.92-1.26-8.81c-.1-.7,.17-1.41,.71-1.86,.55-.46,1.28-.6,1.96-.38l63.01,20.35c.67,.22,1.19,.77,1.36,1.46,.17,.68-.02,1.42-.51,1.92l-6.17,6.42,.51,11.37c.02,.5-.14,.99-.45,1.38l-6.99,8.72,1.19,9.03c.09,.7-.18,1.4-.72,1.85-.54,.45-1.28,.59-1.95,.38Zm-58.65-23.27l56.82,18.35-.88-6.68c-.07-.56,.08-1.12,.44-1.56l7.06-8.8-.51-11.47c-.03-.56,.18-1.11,.57-1.52l4.5-4.68-56.75-18.33,.92,6.43c.08,.56-.07,1.13-.42,1.57l-7.13,9,.58,11.26c.03,.56-.17,1.11-.56,1.52l-4.63,4.9Z"/></g><g><line class="d" x1="77.61" y1="64.24" x2="140.62" y2="84.59"/><path class="g" d="M139.99,86.55l-63.01-20.35c-1.08-.35-1.67-1.51-1.32-2.59s1.51-1.67,2.59-1.33l63.01,20.35c1.08,.35,1.67,1.51,1.32,2.59s-1.51,1.67-2.59,1.32Z"/></g><g><g><polygon class="f" points="28.3 297.93 38.01 318.32 51.75 314.13 65.09 318.43 134.38 103.89 114.52 97.48 91.24 89.96 71.37 83.54 2.06 298.14 14.85 302.27 28.3 297.93"/><path d="M37.38,320.28c-.52-.17-.97-.55-1.22-1.08l-8.93-18.77-11.74,3.79c-.41,.13-.85,.13-1.26,0l-12.79-4.13c-1.08-.35-1.67-1.51-1.32-2.59L69.42,82.91c.35-1.08,1.51-1.67,2.59-1.32l63.01,20.35c1.08,.35,1.67,1.51,1.32,2.59l-69.3,214.54c-.35,1.08-1.51,1.67-2.59,1.33l-12.72-4.11-13.12,4.01c-.42,.13-.84,.12-1.23-.01Zm-8.44-24.31c.52,.17,.97,.55,1.23,1.08l8.94,18.79,12.04-3.68c.4-.12,.83-.12,1.23,.01l11.38,3.68L131.79,105.22l-59.09-19.09L4.65,296.81l10.2,3.29,12.83-4.14c.42-.14,.86-.13,1.26,0Z"/></g><g><polygon class="d" points="51.75 314.13 38.01 318.32 28.3 297.93 14.85 302.27 2.06 298.14 8.64 346.93 26.32 359.36 65.07 318.49 65.09 318.43 51.75 314.13"/><path class="g" d="M25.68,361.32c-.19-.06-.38-.15-.55-.28l-17.68-12.43c-.47-.33-.78-.84-.86-1.41L.02,298.41c-.09-.7,.18-1.4,.72-1.85,.54-.45,1.28-.6,1.95-.38l12.16,3.93,12.83-4.14c.98-.32,2.05,.14,2.49,1.07l8.94,18.79,12.04-3.68c.4-.12,.83-.12,1.23,.01l13.34,4.31c1.08,.35,1.67,1.51,1.32,2.59-.09,.29-.27,.62-.48,.84l-38.75,40.87c-.56,.59-1.39,.78-2.12,.54Zm-15.13-15.56l15.49,10.9,35.33-37.26-9.64-3.11-13.12,4.01c-.98,.3-2.02-.16-2.46-1.09l-8.93-18.77-11.74,3.79c-.41,.13-.85,.13-1.26,0l-9.68-3.13,6.02,44.66Z"/></g></g><g><line class="d" x1="28.3" y1="297.93" x2="95.08" y2="91.2"/><path class="g" d="M27.67,299.88c-1.08-.35-1.67-1.51-1.32-2.59L93.12,90.56c.35-1.08,1.51-1.67,2.59-1.32s1.67,1.51,1.32,2.59L30.26,298.56c-.35,1.08-1.51,1.67-2.59,1.33Z"/></g><g><line class="d" x1="51.75" y1="314.13" x2="88.96" y2="198.92"/><path class="g" d="M51.12,316.08c-1.08-.35-1.67-1.51-1.32-2.59l37.21-115.2c.35-1.08,1.51-1.67,2.59-1.32s1.67,1.51,1.33,2.59l-37.21,115.2c-.35,1.08-1.51,1.67-2.59,1.32Z"/></g><g><line class="d" x1="95.39" y1="179.01" x2="105.42" y2="147.98"/><path class="g" d="M94.76,180.97c-1.08-.35-1.67-1.51-1.32-2.59l10.02-31.03c.35-1.08,1.51-1.67,2.59-1.33s1.67,1.51,1.32,2.59l-10.02,31.03c-.35,1.08-1.51,1.67-2.59,1.33Z"/></g></g></g></g></svg>