<?xml version="1.0" encoding="UTF-8"?><svg xmlns="http://www.w3.org/2000/svg" viewBox="0 0 844 844"><defs><style>.d{fill:#bdf1f4;}.e{fill:none;}.f{fill:#14b5bf;}</style></defs><g id="a"/><g id="b"><g id="c"><g><path class="e" d="M0,0V844H844V0H0Z"/><path class="f" d="M657.82,342.3c0-68.05-55.37-123.43-123.4-123.43-49.94,0-93.01,29.81-112.42,72.55-19.4-42.74-62.48-72.55-112.39-72.55-68.07,0-123.42,55.37-123.42,123.43,0,14.36,2.47,28.12,7,40.96,5.16,14.61,12.98,27.95,22.9,39.45,4.23,4.92,8.82,9.5,13.78,13.7l188.24,186.98c1.16,1.16,2.67,1.74,4.19,1.74s3.06-.58,4.22-1.74l195.23-193.96v-.03c12.64-12.68,22.56-28.07,28.77-45.25,4.72-13.07,7.3-27.16,7.3-41.84Z"/><g><path class="d" d="M378.79,422l-19.73,19.73c-5.07,5.07-5.07,13.29,0,18.36h0c5.07,5.07,13.29,5.07,18.36,0l15.58-15.58c18.52-18.52,48.54-18.52,67.06,0h0c18.52,18.52,18.52,48.54,0,67.06l-121.56,121.56c-18.52,18.52-48.54,18.52-67.06,0h0c-18.52-18.52-18.52-48.54,0-67.06l9.44-9.44c.87-.87,2.29-.87,3.16,0l4.17,4.17c7.65,7.65,20.65,4.9,24.54-5.2l19.34-50.2c4.66-12.11-7.24-24-19.34-19.34l-50.2,19.34c-10.1,3.89-12.86,16.89-5.2,24.54l5.17,5.17c.87,.87,.87,2.29,0,3.16l-13.58,13.58c-28.66,28.66-28.66,75.13,0,103.79h0c28.66,28.66,75.13,28.66,103.79,0l129.85-129.85c28.66-28.66,28.66-75.13,0-103.79h0c-28.66-28.66-75.13-28.66-103.79,0Z"/><path class="d" d="M429.21,480l19.73-19.73c5.07-5.07,5.07-13.29,0-18.36h0c-5.07-5.07-13.29-5.07-18.36,0l-15.58,15.58c-18.52,18.52-48.54,18.52-67.06,0h0c-18.52-18.52-18.52-48.54,0-67.06l121.56-121.56c18.52-18.52,48.54-18.52,67.06,0h0c18.52,18.52,18.52,48.54,0,67.06l-9.44,9.44c-.87,.87-2.29,.87-3.16,0l-4.17-4.17c-7.65-7.65-20.65-4.9-24.54,5.2l-19.34,50.2c-4.66,12.11,7.24,24,19.34,19.34l50.2-19.34c10.1-3.89,12.86-16.89,5.2-24.54l-5.17-5.17c-.87-.87-.87-2.29,0-3.16l13.58-13.58c28.66-28.66,28.66-75.13,0-103.79h0c-28.66-28.66-75.13-28.66-103.79,0l-129.85,129.85c-28.66,28.66-28.66,75.13,0,103.79h0c28.66,28.66,75.13,28.66,103.79,0Z"/></g></g></g></g></svg>