<?xml version="1.0" encoding="UTF-8"?><svg xmlns="http://www.w3.org/2000/svg" viewBox="0 0 1328.86 267.5"><defs><style>.d{fill:#14b5bf;}</style></defs><g id="a"/><g id="b"><g id="c"><g><path class="d" d="M89.52,116.59l-11.67,11.67c-3,3-3,7.86,0,10.86h0c3,3,7.86,3,10.86,0l9.21-9.21c10.95-10.95,28.71-10.95,39.66,0h0c10.95,10.95,10.95,28.71,0,39.66l-71.9,71.9c-10.95,10.95-28.71,10.95-39.66,0h0c-10.95-10.95-10.95-28.71,0-39.66l5.58-5.58c.52-.52,1.35-.52,1.87,0l2.46,2.46c4.53,4.53,12.22,2.9,14.52-3.08l11.44-29.69c2.76-7.16-4.28-14.2-11.44-11.44l-29.69,11.44c-5.97,2.3-7.6,9.99-3.08,14.52l3.06,3.06c.52,.52,.52,1.35,0,1.87l-8.03,8.03c-16.95,16.95-16.95,44.43,0,61.39h0c16.95,16.95,44.43,16.95,61.39,0l76.8-76.8c16.95-16.95,16.95-44.43,0-61.39h0c-16.95-16.95-44.43-16.95-61.39,0Z"/><path class="d" d="M119.34,150.9l11.67-11.67c3-3,3-7.86,0-10.86h0c-3-3-7.86-3-10.86,0l-9.21,9.21c-10.95,10.95-28.71,10.95-39.66,0h0c-10.95-10.95-10.95-28.71,0-39.66L143.17,26.03c10.95-10.95,28.71-10.95,39.66,0h0c10.95,10.95,10.95,28.71,0,39.66l-5.58,5.58c-.52,.52-1.35,.52-1.87,0l-2.46-2.46c-4.53-4.53-12.22-2.9-14.52,3.08l-11.44,29.69c-2.76,7.16,4.28,14.2,11.44,11.44l29.69-11.44c5.97-2.3,7.6-9.99,3.08-14.52l-3.06-3.06c-.52-.52-.52-1.35,0-1.87l8.03-8.03c16.95-16.95,16.95-44.43,0-61.39h0c-16.95-16.95-44.43-16.95-61.39,0L57.95,89.52c-16.95,16.95-16.95,44.43,0,61.39h0c16.95,16.95,44.43,16.95,61.39,0Z"/></g><g><path d="M266.24,60.83v125.2h72.53v24.01h-103.91V60.83h31.38Z"/><path d="M413.85,60.83V210.03h-31.38V60.83h31.38Z"/><path d="M500,60.83l72.27,103.66h.26V60.83h31.12V210.03h-30.09l-73.81-105.23h-.26v105.23h-31.12V60.83h31.64Z"/><path d="M688.76,60.83v73.14h.26l59.93-73.14h34.47l-48.61,60.58,52.98,88.62h-35.49l-38.84-66.41-24.69,28.94v37.47h-31.12V60.83h31.12Z"/><path d="M813.23,201.73l8.75-18.85c8.49,4.49,23.66,10.77,37.29,10.77,10.29,0,19.03-4.71,19.03-14.36s-9.52-13.24-21.86-16.38c-18.77-4.94-39.61-10.32-39.61-33.43s22.12-35.67,46.81-35.67c19.29,0,36.01,6.73,46.55,15.93l-14.66,15.48c-9.77-7.18-20.57-11.89-31.12-11.89-9.52,0-18.26,4.04-18.26,13.68s10.03,12.79,22.89,16.38c18.52,5.38,39.61,10.99,39.61,33.88s-19.8,36.12-48.61,36.12c-22.12,0-40.38-6.95-46.81-11.67Z"/><path d="M945.16,54.1v52.73c8.49-8.98,21.6-13.01,34.72-13.01,26.75,0,41.15,13.01,41.15,39.49v76.73h-30.61v-72.02c0-13.24-3.09-23.56-19.55-23.56-14.66,0-25.72,10.77-25.72,22.21v73.37h-30.61V54.1h30.61Z"/><path d="M1029.25,158.43c0-39.49,22.38-64.62,66.61-64.62,8.74,0,27.52,1.8,45.78,7.85v86.83l2.57,21.54h-26.49l-1.8-11.89-1.03-.22c-6.94,8.75-18.26,15.48-35.49,15.48-38.84,0-50.15-25.58-50.15-54.97Zm82.3,15.93v-58.11c-3.86-1.57-11.57-3.14-19.55-3.14-24.43,0-32.66,20.19-32.66,44.43,0,18.4,5.4,36.12,26.75,36.12,16.46,0,25.46-9.65,25.46-19.3Z"/><path d="M1155,97.18h25.2l3.09,16.15c5.66-12.57,18.26-19.52,31.12-19.52,7.72,0,15.69,1.57,20.58,4.26l-5.4,22.21c-5.14-2.24-11.57-4.04-18.26-4.04-13.89,0-22.89,9.65-23.4,22.66v71.13h-30.61V115.13l-2.32-17.95Z"/><path d="M1223.66,155.96c0-32.98,21.86-62.15,62.76-62.15,25.2,0,40.89,11.22,40.89,31.19,0,34.55-44.49,39.94-72.53,40.16,1.29,13.91,10.29,27.82,32.15,27.82,15.17,0,26.24-6.06,32.41-9.87l9.52,17.72c-4.11,3.14-21.09,12.56-45.27,12.56-42.44,0-59.93-23.78-59.93-57.44Zm76.39-29.84c0-8.3-6.17-13.24-15.43-13.24-20.58,0-30.09,16.6-30.86,32.98,13.89,.22,46.29-2.47,46.29-19.74Z"/></g></g></g></svg>