<?xml version="1.0" encoding="UTF-8"?><svg xmlns="http://www.w3.org/2000/svg" viewBox="0 0 844 844"><defs><style>.d{fill:#14b5bf;stroke:#14b5bf;stroke-miterlimit:10;stroke-width:23px;}.e{fill:#bdf1f4;}</style></defs><g id="a"/><g id="b"><g id="c"><g><path class="e" d="M0,0V844H844V0H0Z"/><g><path class="d" d="M442.05,422l151.67-151.67c5.47-5.47,5.47-14.33,0-19.8h0c-5.47-5.47-14.33-5.47-19.8,0l-151.67,151.67-151.67-151.67c-5.47-5.47-14.33-5.47-19.8,0h0c-5.47,5.47-5.47,14.33,0,19.8l151.67,151.67-151.67,151.67c-5.47,5.47-5.47,14.33,0,19.8s14.33,5.47,19.8,0l151.67-151.67,151.67,151.67c5.47,5.47,14.33,5.47,19.8,0h0c5.47-5.47,5.47-14.33,0-19.8l-151.67-151.67Z"/><path class="d" d="M422,102.38c-178.46,0-323.12,143.1-323.12,319.62s144.67,319.62,323.12,319.62,323.12-143.1,323.12-319.62S600.46,102.38,422,102.38Zm0,612.46c-163.5,0-296.04-131.11-296.04-292.83S258.5,129.17,422,129.17s296.04,131.11,296.04,292.83-132.54,292.83-296.04,292.83Z"/></g></g></g></g></svg>