<?xml version="1.0" encoding="UTF-8"?><svg xmlns="http://www.w3.org/2000/svg" viewBox="0 0 844 844"><defs><style>.d{fill:#bdf1f4;}.e{fill:#961212;}.f{fill:#14b5bf;}</style></defs><g id="a"/><g id="b"><g id="c"><g><path class="d" d="M0,0V844H844V0H0Z"/><g><g><path class="f" d="M460.19,417.94l-19.73,19.73c-5.07,5.07-5.07,13.29,0,18.36h0c5.07,5.07,13.29,5.07,18.36,0l15.58-15.58c18.52-18.52,48.54-18.52,67.06,0h0c18.52,18.52,18.52,48.54,0,67.06l-121.56,121.56c-18.52,18.52-48.54,18.52-67.06,0h0c-18.52-18.52-18.52-48.54,0-67.06l9.44-9.44c.87-.87,2.29-.87,3.16,0l4.17,4.17c7.65,7.65,20.65,4.9,24.54-5.2l19.34-50.2c4.66-12.11-7.24-24-19.34-19.34l-50.2,19.34c-10.1,3.89-12.86,16.89-5.2,24.54l5.17,5.17c.87,.87,.87,2.29,0,3.16l-13.58,13.58c-28.66,28.66-28.66,75.13,0,103.79h0c28.66,28.66,75.13,28.66,103.79,0l129.85-129.85c28.66-28.66,28.66-75.13,0-103.79h0c-28.66-28.66-75.13-28.66-103.79,0Z"/><path class="f" d="M510.62,475.95l19.73-19.73c5.07-5.07,5.07-13.29,0-18.36h0c-5.07-5.07-13.29-5.07-18.36,0l-15.58,15.58c-18.52,18.52-48.54,18.52-67.06,0h0c-18.52-18.52-18.52-48.54,0-67.06l121.56-121.56c18.52-18.52,48.54-18.52,67.06,0h0c18.52,18.52,18.52,48.54,0,67.06l-9.44,9.44c-.87,.87-2.29,.87-3.16,0l-4.17-4.17c-7.65-7.65-20.65-4.9-24.54,5.2l-19.34,50.2c-4.66,12.11,7.24,24,19.34,19.34l50.2-19.34c10.1-3.89,12.86-16.89,5.2-24.54l-5.17-5.17c-.87-.87-.87-2.29,0-3.16l13.58-13.58c28.66-28.66,28.66-75.13,0-103.79h0c-28.66-28.66-75.13-28.66-103.79,0l-129.85,129.85c-28.66,28.66-28.66,75.13,0,103.79h0c28.66,28.66,75.13,28.66,103.79,0Z"/></g><rect class="e" x="283.47" y="159.55" width="49.77" height="252.65" rx="14.72" ry="14.72" transform="translate(594.24 -22.48) rotate(90)"/></g></g></g></g></svg>