<?xml version="1.0" encoding="UTF-8"?><svg xmlns="http://www.w3.org/2000/svg" viewBox="0 0 755.33 509.61"><defs><style>.d{fill:none;}.e{fill:#14b5bf;}</style></defs><g id="a"/><g id="b"><g id="c"><g><path class="d" d="M371.82,326.3c-1.94,0-3.86-.04-5.75-.11,1.52,4.35,3.69,8.52,6.52,12.37,2.88-3.86,5.11-8.05,6.66-12.44-2.44,.11-4.92,.18-7.43,.18Z"/><path class="d" d="M401.91,268.73c1.79-1.6,3.5-3.42,5.13-5.47-2.63,.21-5.25,.63-7.83,1.28,.95,1.37,1.86,2.76,2.7,4.19Z"/><path class="d" d="M337.96,262.94c1.77,2.24,3.64,4.22,5.61,5.95,.92-1.55,1.92-3.06,2.96-4.54-2.82-.73-5.69-1.2-8.57-1.4Z"/><path class="d" d="M372.99,241.16c14.76-7.63,31.57-9.93,47.55-6.87,4.72-17.32,7.38-40.71,7.38-71.9,0-88.76-20.97-113.15-53.66-113.15s-56.1,27.32-56.1,119.5c0,27.67,2.31,49.04,6.58,65.28,16.23-3.13,33.31-.75,48.25,7.14Z"/><polygon points="188.77 321.42 188.77 246.32 232.65 246.32 232.65 199.97 188.77 199.97 188.77 108.74 154.61 108.74 135.11 176.54 135.11 199.97 59.99 199.97 142.92 22.92 96.57 0 0 205.33 0 245.8 129.75 245.8 129.75 321.42 188.77 321.42"/><g><path class="e" d="M588.43,384.33l-19.73-19.73c-5.07-5.07-13.29-5.07-18.36,0h0c-5.07,5.07-5.07,13.29,0,18.36l15.58,15.58c18.52,18.52,18.52,48.54,0,67.06h0c-18.52,18.52-48.54,18.52-67.06,0l-107.95-107.95c10.4-10.52,16.96-23.4,19.71-36.9-9.59,3.07-20.05,4.84-31.37,5.38-1.56,4.38-3.78,8.58-6.66,12.44-2.83-3.84-5-8.02-6.52-12.37-11.32-.4-21.73-2.01-31.23-4.88,2.75,13.28,9.2,25.94,19.37,36.33l-107.67,107.67c-18.52,18.52-48.54,18.52-67.06,0h0c-18.52-18.52-18.52-48.54,0-67.06l9.44-9.44c.87-.87,2.29-.87,3.16,0l4.17,4.17c7.65,7.65,20.65,4.9,24.54-5.2l19.34-50.2c4.66-12.11-7.24-24-19.34-19.34l-50.2,19.34c-10.1,3.89-12.86,16.89-5.2,24.54l5.17,5.17c.87,.87,.87,2.29,0,3.16l-13.58,13.58c-28.66,28.66-28.66,75.13,0,103.79h0c28.66,28.66,75.13,28.66,103.79,0l111.8-111.8,112.09,112.09c28.66,28.66,75.13,28.66,103.79,0h0c28.66-28.66,28.66-75.13,0-103.79Z"/><path class="e" d="M267.1,292.28c5.07,5.07,13.29,5.07,18.36,0l3.49-3.49,12.09-12.09c10.12-10.12,23.68-14.7,36.92-13.75,2.89,.21,5.76,.67,8.57,1.4-1.04,1.49-2.04,3-2.96,4.54,7.52,6.6,16.49,9.62,26.62,10.05,.86,.04,1.72,.06,2.6,.06s1.79-.02,2.67-.06c9.84-.44,18.82-3.37,26.45-10.21-.84-1.42-1.75-2.81-2.7-4.19,2.58-.65,5.2-1.07,7.83-1.28,13.37-1.06,27.09,3.5,37.32,13.73l9.44,9.44c.87,.87,.87,2.29,0,3.16l-4.17,4.17c-1.76,1.76-2.96,3.8-3.66,5.95-2.34,7.2,1.08,15.6,8.86,18.6l50.2,19.34c12.11,4.66,24-7.24,19.34-19.34l-19.34-50.2c-3.89-10.1-16.89-12.86-24.54-5.2l-5.17,5.17c-.87,.87-2.29,.87-3.16,0l-3.04-3.04-10.54-10.54c-10.79-10.79-24.1-17.51-38.04-20.18-15.99-3.06-32.79-.76-47.55,6.87-14.93-7.89-32.02-10.27-48.25-7.14-13.89,2.68-27.16,9.4-37.91,20.16l-10.93,10.94-8.79,8.79c-5.07,5.07-5.07,13.29,0,18.36h0Z"/></g><g><path d="M375.23,.95c-69.74,0-115.12,49.76-115.12,162.44,0,42.75,5.25,76.39,15.77,101.73l10.93-10.94c10.76-10.76,24.02-17.48,37.91-20.16-4.27-16.24-6.58-37.61-6.58-65.28,0-92.18,21.96-119.5,56.1-119.5s53.66,24.39,53.66,113.15c0,31.18-2.65,54.57-7.38,71.9,13.94,2.67,27.25,9.39,38.04,20.18l10.54,10.54c11.12-25.66,16.84-59.88,16.84-103.57C485.96,46.31,443.53,.95,375.23,.95Z"/><path d="M444.36,276.99c-10.22-10.22-23.95-14.79-37.32-13.73-1.63,2.05-3.35,3.87-5.13,5.47-7.63,6.84-16.61,9.78-26.45,10.21-.88,.04-1.77,.06-2.67,.06s-1.74-.02-2.6-.06c-10.13-.43-19.1-3.46-26.62-10.05-1.97-1.73-3.85-3.71-5.61-5.95-13.24-.94-26.79,3.63-36.92,13.75l-12.09,12.09c11.71,16.13,27.01,26.82,45.89,32.53,9.5,2.87,19.91,4.48,31.23,4.88,1.89,.07,3.8,.11,5.75,.11,2.52,0,4.99-.06,7.43-.18,11.32-.53,21.78-2.3,31.37-5.38,13.56-4.35,25.36-11.3,35.35-21.05,.7-2.15,1.9-4.19,3.66-5.95l4.17-4.17c.87-.87,.87-2.29,0-3.16l-9.44-9.44Z"/></g><polygon points="711.45 199.97 711.45 108.74 677.29 108.74 657.79 176.54 657.79 199.97 582.67 199.97 665.6 22.92 619.25 0 522.68 205.33 522.68 245.8 652.43 245.8 652.43 321.42 711.45 321.42 711.45 246.32 755.33 246.32 755.33 199.97 711.45 199.97"/></g></g></g></svg>